<?xml version="1.0" encoding="UTF-8" standalone="no"?>
<!DOCTYPE svg PUBLIC "-//W3C//DTD SVG 1.1//EN" "http://www.w3.org/Graphics/SVG/1.1/DTD/svg11.dtd">
<svg width="100%" height="100%" viewBox="0 0 15 21" version="1.1" xmlns="http://www.w3.org/2000/svg" xmlns:xlink="http://www.w3.org/1999/xlink" xml:space="preserve" xmlns:serif="http://www.serif.com/" style="fill-rule:evenodd;clip-rule:evenodd;stroke-linecap:square;stroke-miterlimit:1.5;">
    <g transform="matrix(1,0,0,1,-1495,-757)">
        <g transform="matrix(1,0,0,1,-6625.71,4.66667)">
            <g transform="matrix(0.838322,0.476205,-0.411677,0.724724,1636.59,-3663.22)">
                <g transform="matrix(0.555556,0,0,0.65625,3599.89,-393.62)">
                    <path d="M8144,1756.44C8144,1756.2 8143.8,1756 8143.55,1756L8135.45,1756C8135.2,1756 8135,1756.2 8135,1756.44L8135,1787.56C8135,1787.8 8135.2,1788 8135.45,1788L8143.55,1788C8143.8,1788 8144,1787.8 8144,1787.56L8144,1756.44Z" style="fill:none;stroke:rgb(36,67,90);stroke-width:1.48px;"/>
                </g>
                <g transform="matrix(0.555556,5.83165e-17,-5.89645e-17,-0.333333,3599.89,1380.75)">
                    <path d="M8139.5,1791L8144,1803L8135,1803L8139.5,1791Z" style="fill:none;stroke:rgb(36,67,90);stroke-width:1.88px;stroke-linecap:round;stroke-linejoin:round;"/>
                </g>
                <g transform="matrix(0.555556,0,0,1,3599.89,-1002.25)">
                    <rect x="8135" y="1761" width="9" height="6" style="fill:rgb(36,67,90);stroke:rgb(36,67,90);stroke-width:1.14px;stroke-linecap:round;stroke-linejoin:round;"/>
                </g>
            </g>
        </g>
    </g>
</svg>
