<?xml version="1.0" encoding="UTF-8" standalone="no"?>
<!DOCTYPE svg PUBLIC "-//W3C//DTD SVG 1.1//EN" "http://www.w3.org/Graphics/SVG/1.1/DTD/svg11.dtd">
<svg width="100%" height="100%" viewBox="0 0 21 19" version="1.1" xmlns="http://www.w3.org/2000/svg" xmlns:xlink="http://www.w3.org/1999/xlink" xml:space="preserve" xmlns:serif="http://www.serif.com/" style="fill-rule:evenodd;clip-rule:evenodd;stroke-linejoin:round;stroke-miterlimit:2;">
    <g transform="matrix(0.778539,0,0,0.864183,-5539.03,-366.67)">
        <path d="M7132.36,434.544C7124.33,433.072 7117.17,440.585 7116.8,444.568C7114.82,432.624 7125.11,429.12 7132.36,429.007L7132.36,425.34L7140,431.934L7132.36,438.527L7132.36,434.544Z" style="fill:white;"/>
        <path d="M7132.36,434.544C7124.33,433.072 7117.17,440.585 7116.8,444.568C7114.82,432.624 7125.11,429.12 7132.36,429.007L7132.36,425.34L7140,431.934L7132.36,438.527L7132.36,434.544ZM7133.42,434.544L7133.42,433.766L7132.57,433.611C7127.37,432.658 7122.49,435.143 7119.34,438.254C7118.72,438.868 7118.17,439.506 7117.7,440.144C7117.97,437.836 7118.86,435.999 7120.15,434.562C7123.18,431.189 7128.3,430.022 7132.38,429.959L7133.42,429.942L7133.42,427.57C7133.42,427.57 7138.47,431.934 7138.47,431.934C7138.47,431.934 7133.42,436.297 7133.42,436.297C7133.42,436.297 7133.42,434.544 7133.42,434.544Z" style="fill:rgb(63,63,63);"/>
    </g>
</svg>
