<?xml version="1.0" encoding="UTF-8" standalone="no"?>
<!-- Generator: Adobe Illustrator 16.0.0, SVG Export Plug-In . SVG Version: 6.00 Build 0)  -->

<svg
   xmlns:dc="http://purl.org/dc/elements/1.1/"
   xmlns:cc="http://creativecommons.org/ns#"
   xmlns:rdf="http://www.w3.org/1999/02/22-rdf-syntax-ns#"
   xmlns:svg="http://www.w3.org/2000/svg"
   xmlns="http://www.w3.org/2000/svg"
   xmlns:sodipodi="http://sodipodi.sourceforge.net/DTD/sodipodi-0.dtd"
   xmlns:inkscape="http://www.inkscape.org/namespaces/inkscape"
   version="1.1"
   id="Capa_1"
   x="0px"
   y="0px"
   width="800"
   height="800"
   viewBox="0 0 800 800"
   xml:space="preserve"
   sodipodi:docname="gps-indicator.svg"
   inkscape:version="0.92.4 (5da689c313, 2019-01-14)"><metadata
   id="metadata42"><rdf:RDF><cc:Work
       rdf:about=""><dc:format>image/svg+xml</dc:format><dc:type
         rdf:resource="http://purl.org/dc/dcmitype/StillImage" /><dc:title></dc:title></cc:Work></rdf:RDF></metadata><defs
   id="defs40" /><sodipodi:namedview
   pagecolor="#ffffff"
   bordercolor="#666666"
   borderopacity="1"
   objecttolerance="10"
   gridtolerance="10"
   guidetolerance="10"
   inkscape:pageopacity="0"
   inkscape:pageshadow="2"
   inkscape:window-width="1680"
   inkscape:window-height="987"
   id="namedview38"
   showgrid="false"
   inkscape:pagecheckerboard="true"
   inkscape:zoom="0.42067736"
   inkscape:cx="280.5"
   inkscape:cy="280.5"
   inkscape:window-x="-8"
   inkscape:window-y="-8"
   inkscape:window-maximized="1"
   inkscape:current-layer="Capa_1" />
<g
   id="g5"
   transform="translate(121.23305,129.65254)">
	<g
   id="gps-fixed">
		<path
   d="m 280.5,178.5 c -56.1,0 -102,45.9 -102,102 0,56.1 45.9,102 102,102 56.1,0 102,-45.9 102,-102 0,-56.1 -45.9,-102 -102,-102 z M 507.45,255 C 494.7,147.9 410.55,63.75 306,53.55 V 0 H 255 V 53.55 C 147.9,63.75 63.75,147.9 53.55,255 H 0 v 51 H 53.55 C 66.3,413.1 150.45,497.25 255,507.45 V 561 h 51 V 507.45 C 413.1,494.7 497.25,410.55 507.45,306 H 561 V 255 Z M 280.5,459 C 181.05,459 102,379.95 102,280.5 102,181.05 181.05,102 280.5,102 379.95,102 459,181.05 459,280.5 459,379.95 379.95,459 280.5,459 Z"
   id="path2"
   inkscape:connector-curvature="0" />
	</g>
</g>
<g
   id="g7"
   transform="translate(0,239)">
</g>
<g
   id="g9"
   transform="translate(0,239)">
</g>
<g
   id="g11"
   transform="translate(0,239)">
</g>
<g
   id="g13"
   transform="translate(0,239)">
</g>
<g
   id="g15"
   transform="translate(0,239)">
</g>
<g
   id="g17"
   transform="translate(0,239)">
</g>
<g
   id="g19"
   transform="translate(0,239)">
</g>
<g
   id="g21"
   transform="translate(0,239)">
</g>
<g
   id="g23"
   transform="translate(0,239)">
</g>
<g
   id="g25"
   transform="translate(0,239)">
</g>
<g
   id="g27"
   transform="translate(0,239)">
</g>
<g
   id="g29"
   transform="translate(0,239)">
</g>
<g
   id="g31"
   transform="translate(0,239)">
</g>
<g
   id="g33"
   transform="translate(0,239)">
</g>
<g
   id="g35"
   transform="translate(0,239)">
</g>
</svg>
