<?xml version="1.0" encoding="UTF-8" standalone="no"?>
<!DOCTYPE svg PUBLIC "-//W3C//DTD SVG 1.1//EN" "http://www.w3.org/Graphics/SVG/1.1/DTD/svg11.dtd">
<svg width="100%" height="100%" viewBox="0 0 63 43" version="1.1" xmlns="http://www.w3.org/2000/svg" xmlns:xlink="http://www.w3.org/1999/xlink" xml:space="preserve" xmlns:serif="http://www.serif.com/" style="fill-rule:evenodd;clip-rule:evenodd;stroke-linejoin:round;stroke-miterlimit:2;">
    <g>
        <path d="M60.5,0.616L60.735,0.649L60.966,0.703L61.191,0.778L61.407,0.874L61.614,0.989L61.81,1.123L61.992,1.275L62.16,1.442L62.311,1.625L62.445,1.82L62.561,2.027L62.656,2.244L62.732,2.469L62.786,2.7L62.819,2.934L62.83,3.171L62.83,40.126L62.819,40.363L62.786,40.598L62.732,40.828L62.656,41.053L62.561,41.27L62.445,41.477L62.311,41.673L62.16,41.855L61.992,42.023L61.81,42.174L61.614,42.308L61.407,42.423L61.191,42.519L60.966,42.594L60.735,42.649L60.5,42.681L60.264,42.692L3.151,42.692L2.915,42.681L2.68,42.649L2.449,42.594L2.224,42.519L2.008,42.423L1.8,42.308L1.605,42.174L1.423,42.023L1.255,41.855L1.104,41.673L0.97,41.477L0.854,41.27L0.759,41.053L0.683,40.828L0.629,40.598L0.596,40.363L0.585,40.126L0.585,3.171L0.596,2.934L0.629,2.7L0.683,2.469L0.759,2.244L0.854,2.027L0.97,1.82L1.104,1.625L1.255,1.442L1.423,1.275L1.605,1.123L1.8,0.989L2.008,0.874L2.224,0.778L2.449,0.703L2.68,0.649L2.915,0.616L3.151,0.605L60.264,0.605L60.5,0.616ZM3.151,3.171L3.151,40.126L60.264,40.126L60.264,3.171L3.151,3.171Z" style="fill:rgb(63,63,63);"/>
        <path d="M60.502,0.616L60.738,0.649L60.97,0.704L61.197,0.781L61.415,0.878L61.623,0.994L61.819,1.13L62.002,1.283L62.17,1.453L62.321,1.638L62.455,1.835L62.569,2.045L62.664,2.264L62.738,2.49L62.79,2.723L62.821,2.96L62.83,3.198L62.816,3.437L62.78,3.673L62.723,3.904L62.644,4.129L62.545,4.346L62.426,4.553L62.288,4.748L62.133,4.929L61.961,5.095L33.405,30.292L33.225,30.437L33.032,30.566L32.828,30.676L32.615,30.768L32.395,30.84L32.169,30.892L31.939,30.923L31.707,30.934L31.476,30.923L31.246,30.892L31.02,30.84L30.8,30.768L30.587,30.676L30.383,30.566L30.19,30.437L30.01,30.292L1.454,5.095L1.282,4.929L1.127,4.748L0.989,4.553L0.87,4.346L0.771,4.129L0.692,3.904L0.635,3.673L0.599,3.437L0.585,3.198L0.594,2.96L0.625,2.723L0.677,2.49L0.751,2.264L0.846,2.045L0.96,1.835L1.094,1.638L1.245,1.453L1.413,1.283L1.596,1.13L1.792,0.994L2,0.878L2.218,0.781L2.445,0.704L2.677,0.649L2.913,0.616L3.151,0.605L60.264,0.605L60.502,0.616ZM3.151,3.171L31.707,28.368L60.264,3.171L3.151,3.171Z" style="fill:rgb(63,63,63);"/>
    </g>
</svg>
