<?xml version="1.0" encoding="UTF-8" standalone="no"?>
<!DOCTYPE svg PUBLIC "-//W3C//DTD SVG 1.1//EN" "http://www.w3.org/Graphics/SVG/1.1/DTD/svg11.dtd">
<svg width="100%" height="100%" viewBox="0 0 47 69" version="1.1" xmlns="http://www.w3.org/2000/svg" xmlns:xlink="http://www.w3.org/1999/xlink" xml:space="preserve" xmlns:serif="http://www.serif.com/" style="fill-rule:evenodd;clip-rule:evenodd;stroke-linecap:round;stroke-linejoin:round;stroke-miterlimit:1.5;">
    <g>
        <g>
            <path d="M42.641,20.652L42.882,20.674L43.12,20.712L43.356,20.765L43.589,20.832L43.816,20.914L44.038,21.01L44.253,21.12L44.462,21.243L44.662,21.379L44.853,21.527L45.034,21.687L45.205,21.858L45.365,22.04L45.513,22.231L45.649,22.431L45.772,22.639L45.882,22.854L45.978,23.076L46.06,23.304L46.127,23.536L46.18,23.772L46.218,24.011L46.241,24.252L46.248,24.493L46.248,64.324L46.241,64.565L46.218,64.806L46.18,65.045L46.127,65.281L46.06,65.513L45.978,65.741L45.882,65.963L45.772,66.178L45.649,66.386L45.513,66.586L45.365,66.777L45.205,66.959L45.034,67.13L44.853,67.29L44.662,67.438L44.462,67.574L44.253,67.697L44.038,67.807L43.816,67.903L43.589,67.985L43.356,68.052L43.12,68.105L42.882,68.143L42.641,68.165L42.399,68.173L4.162,68.173L3.92,68.165L3.679,68.143L3.441,68.105L3.205,68.052L2.972,67.985L2.745,67.903L2.523,67.807L2.307,67.697L2.099,67.574L1.899,67.438L1.708,67.29L1.527,67.13L1.356,66.959L1.196,66.777L1.048,66.586L0.912,66.386L0.789,66.178L0.679,65.963L0.583,65.741L0.501,65.513L0.434,65.281L0.381,65.045L0.343,64.806L0.32,64.565L0.313,64.324L0.313,24.493L0.32,24.252L0.343,24.011L0.381,23.772L0.434,23.536L0.501,23.304L0.583,23.076L0.679,22.854L0.789,22.639L0.912,22.431L1.048,22.231L1.196,22.04L1.356,21.858L1.527,21.687L1.708,21.527L1.899,21.379L2.099,21.243L2.307,21.12L2.523,21.01L2.745,20.914L2.972,20.832L3.205,20.765L3.441,20.712L3.679,20.674L3.92,20.652L4.162,20.644L42.399,20.644L42.641,20.652ZM4.162,24.493L4.162,64.324L42.399,64.324L42.399,24.493L4.162,24.493Z" style="fill:rgb(63,63,63);"/>
            <path d="M42.343,21.307C41.591,10.619 33.338,2.188 23.28,2.188C13.223,2.188 4.97,10.619 4.218,21.307" style="fill:none;stroke:rgb(63,63,63);stroke-width:3.14px;"/>
            <path d="M23.263,32.587L23.382,32.59L23.499,32.593L23.735,32.605L23.851,32.613L23.968,32.623L24.084,32.634L24.201,32.647L24.317,32.661L24.431,32.676L24.546,32.693L24.661,32.711L24.775,32.731L24.888,32.752L25.002,32.774L25.114,32.798L25.226,32.823L25.338,32.85L25.449,32.878L25.56,32.907L25.67,32.938L25.779,32.969L25.888,33.003L25.998,33.037L26.105,33.073L26.211,33.11L26.319,33.149L26.425,33.188L26.53,33.229L26.635,33.271L26.739,33.314L26.945,33.404L27.048,33.452L27.149,33.5L27.249,33.549L27.35,33.6L27.449,33.651L27.547,33.704L27.645,33.758L27.743,33.813L27.839,33.869L27.934,33.926L28.028,33.984L28.123,34.044L28.216,34.105L28.308,34.166L28.4,34.229L28.491,34.293L28.581,34.358L28.669,34.423L28.757,34.49L28.845,34.558L28.931,34.626L29.017,34.696L29.187,34.84L29.269,34.912L29.351,34.986L29.433,35.061L29.513,35.136L29.592,35.213L29.671,35.291L29.748,35.369L29.826,35.449L29.901,35.53L29.975,35.61L30.049,35.692L30.122,35.776L30.194,35.86L30.265,35.945L30.335,36.03L30.404,36.117L30.471,36.204L30.538,36.292L30.604,36.382L30.669,36.472L30.733,36.563L30.795,36.653L30.857,36.746L30.918,36.84L30.977,36.933L31.036,37.028L31.093,37.124L31.149,37.22L31.204,37.317L31.258,37.415L31.311,37.513L31.362,37.612L31.413,37.712L31.462,37.813L31.51,37.914L31.557,38.016L31.603,38.119L31.648,38.223L31.69,38.326L31.733,38.431L31.774,38.537L31.814,38.644L31.852,38.75L31.889,38.857L31.925,38.965L31.959,39.073L31.992,39.182L32.024,39.292L32.055,39.402L32.084,39.513L32.112,39.624L32.138,39.735L32.164,39.848L32.188,39.961L32.21,40.074L32.231,40.187L32.269,40.415L32.286,40.53L32.301,40.646L32.315,40.761L32.328,40.877L32.339,40.995L32.348,41.111L32.356,41.227L32.363,41.344L32.368,41.462L32.372,41.581L32.374,41.699L32.375,41.817L32.374,41.935L32.372,42.053L32.368,42.171L32.363,42.289L32.356,42.406L32.348,42.522L32.339,42.639L32.328,42.756L32.315,42.872L32.301,42.987L32.286,43.103L32.269,43.218L32.231,43.446L32.21,43.56L32.188,43.672L32.164,43.786L32.138,43.899L32.112,44.01L32.084,44.121L32.055,44.231L32.024,44.342L31.992,44.451L31.959,44.56L31.925,44.668L31.889,44.777L31.852,44.884L31.814,44.99L31.774,45.096L31.733,45.202L31.69,45.307L31.648,45.411L31.603,45.514L31.557,45.617L31.51,45.719L31.462,45.82L31.413,45.921L31.362,46.021L31.311,46.12L31.258,46.219L31.204,46.316L31.149,46.413L31.093,46.509L31.036,46.605L30.977,46.701L30.918,46.794L30.857,46.887L30.795,46.98L30.733,47.071L30.669,47.162L30.604,47.252L30.538,47.342L30.404,47.516L30.335,47.603L30.265,47.689L30.194,47.774L30.123,47.857L30.049,47.941L29.975,48.023L29.901,48.104L29.825,48.185L29.749,48.264L29.671,48.342L29.592,48.42L29.513,48.497L29.433,48.572L29.351,48.648L29.268,48.722L29.187,48.793L29.103,48.865L29.017,48.937L28.932,49.006L28.845,49.075L28.669,49.211L28.581,49.276L28.491,49.341L28.399,49.405L28.309,49.467L28.216,49.529L28.123,49.589L28.029,49.649L27.933,49.708L27.838,49.765L27.743,49.82L27.547,49.93L27.449,49.982L27.35,50.034L27.25,50.084L27.149,50.134L27.047,50.182L26.946,50.229L26.843,50.274L26.739,50.319L26.635,50.363L26.531,50.404L26.425,50.445L26.318,50.485L26.211,50.523L26.104,50.56L25.997,50.596L25.889,50.63L25.781,50.663L25.671,50.695L25.559,50.727L25.448,50.756L25.337,50.784L25.226,50.81L25.115,50.835L25.002,50.859L24.888,50.881L24.775,50.902L24.661,50.922L24.547,50.94L24.431,50.957L24.315,50.973L24.201,50.986L24.084,50.999L23.968,51.01L23.852,51.02L23.734,51.028L23.617,51.035L23.499,51.04L23.381,51.044L23.265,51.046L23.145,51.047L23.025,51.046L22.909,51.044L22.791,51.04L22.673,51.035L22.557,51.028L22.438,51.02L22.322,51.01L22.206,50.999L22.09,50.986L21.975,50.973L21.859,50.957L21.744,50.94L21.63,50.922L21.516,50.902L21.402,50.881L21.289,50.859L21.175,50.835L21.064,50.81L20.953,50.784L20.842,50.756L20.732,50.727L20.619,50.695L20.509,50.663L20.401,50.63L20.293,50.596L20.186,50.561L19.972,50.485L19.866,50.445L19.759,50.404L19.656,50.363L19.552,50.319L19.447,50.274L19.344,50.228L19.244,50.182L19.142,50.134L19.04,50.084L18.941,50.034L18.743,49.93L18.645,49.876L18.548,49.82L18.452,49.764L18.357,49.708L18.262,49.649L18.074,49.529L17.982,49.467L17.891,49.405L17.8,49.341L17.71,49.276L17.621,49.211L17.533,49.143L17.445,49.076L17.358,49.006L17.273,48.937L17.188,48.865L17.104,48.794L17.022,48.722L16.94,48.648L16.857,48.572L16.777,48.497L16.698,48.421L16.619,48.342L16.541,48.263L16.466,48.185L16.39,48.105L16.314,48.023L16.241,47.941L16.167,47.857L16.096,47.774L16.025,47.689L15.955,47.603L15.886,47.516L15.818,47.429L15.752,47.341L15.686,47.252L15.621,47.162L15.558,47.072L15.432,46.886L15.373,46.794L15.313,46.701L15.254,46.605L15.198,46.51L15.141,46.414L15.086,46.316L15.032,46.219L14.979,46.12L14.928,46.021L14.877,45.921L14.828,45.82L14.78,45.719L14.733,45.617L14.687,45.514L14.643,45.411L14.599,45.306L14.557,45.202L14.516,45.096L14.477,44.991L14.439,44.884L14.401,44.776L14.331,44.56L14.298,44.452L14.266,44.342L14.236,44.231L14.206,44.121L14.178,44.01L14.152,43.898L14.127,43.786L14.103,43.673L14.08,43.56L14.059,43.446L14.04,43.332L14.021,43.217L14.005,43.102L13.989,42.988L13.975,42.872L13.963,42.755L13.952,42.64L13.942,42.523L13.934,42.405L13.927,42.288L13.922,42.171L13.918,42.054L13.916,41.936L13.915,41.817L13.916,41.698L13.918,41.58L13.922,41.462L13.927,41.345L13.934,41.228L13.942,41.11L13.952,40.994L13.963,40.878L13.975,40.761L13.989,40.645L14.005,40.531L14.021,40.416L14.04,40.301L14.059,40.187L14.08,40.074L14.103,39.96L14.127,39.848L14.152,39.736L14.178,39.624L14.206,39.513L14.236,39.402L14.266,39.292L14.298,39.182L14.331,39.073L14.366,38.965L14.401,38.858L14.439,38.75L14.477,38.643L14.516,38.537L14.557,38.432L14.599,38.327L14.687,38.119L14.733,38.016L14.78,37.914L14.828,37.813L14.877,37.712L14.928,37.612L14.979,37.513L15.032,37.415L15.086,37.317L15.141,37.22L15.198,37.123L15.255,37.028L15.313,36.933L15.372,36.84L15.433,36.747L15.495,36.654L15.557,36.562L15.621,36.471L15.686,36.382L15.752,36.292L15.818,36.205L15.886,36.117L15.956,36.03L16.025,35.944L16.096,35.86L16.168,35.776L16.24,35.693L16.314,35.611L16.389,35.529L16.465,35.449L16.619,35.291L16.698,35.213L16.777,35.137L16.857,35.061L16.939,34.986L17.021,34.912L17.104,34.839L17.188,34.767L17.273,34.697L17.359,34.627L17.445,34.558L17.533,34.49L17.621,34.423L17.71,34.357L17.8,34.293L17.891,34.229L17.982,34.166L18.074,34.105L18.168,34.044L18.262,33.984L18.357,33.926L18.451,33.869L18.548,33.813L18.645,33.758L18.743,33.704L18.842,33.651L18.941,33.599L19.041,33.549L19.243,33.451L19.345,33.405L19.448,33.359L19.551,33.314L19.656,33.271L19.76,33.229L19.865,33.188L19.971,33.149L20.079,33.11L20.185,33.073L20.292,33.038L20.402,33.003L20.511,32.969L20.62,32.938L20.731,32.907L20.841,32.878L20.952,32.85L21.064,32.823L21.176,32.798L21.289,32.774L21.402,32.752L21.516,32.731L21.63,32.711L21.745,32.693L21.859,32.676L21.974,32.661L22.09,32.647L22.206,32.634L22.322,32.623L22.439,32.613L22.556,32.605L22.674,32.599L22.791,32.593L22.908,32.59L23.027,32.587L23.263,32.587ZM23.076,36.436L22.937,36.44L22.868,36.443L22.8,36.447L22.731,36.452L22.663,36.457L22.595,36.464L22.528,36.471L22.46,36.479L22.393,36.488L22.326,36.498L22.26,36.509L22.193,36.52L22.127,36.532L22.061,36.545L21.996,36.559L21.866,36.589L21.801,36.605L21.737,36.622L21.673,36.64L21.609,36.659L21.546,36.678L21.483,36.698L21.42,36.719L21.358,36.74L21.234,36.786L21.173,36.809L21.112,36.834L21.052,36.859L20.991,36.885L20.932,36.912L20.872,36.939L20.813,36.967L20.755,36.996L20.696,37.025L20.639,37.055L20.581,37.086L20.524,37.117L20.468,37.149L20.356,37.215L20.301,37.249L20.246,37.284L20.192,37.319L20.138,37.355L20.084,37.392L20.031,37.429L19.979,37.467L19.875,37.545L19.824,37.584L19.773,37.624L19.723,37.665L19.576,37.791L19.528,37.834L19.434,37.922L19.387,37.967L19.341,38.013L19.251,38.105L19.207,38.152L19.163,38.2L19.077,38.296L19.035,38.345L18.953,38.445L18.873,38.547L18.834,38.598L18.796,38.65L18.72,38.756L18.684,38.809L18.648,38.863L18.613,38.917L18.578,38.972L18.544,39.027L18.51,39.083L18.478,39.139L18.414,39.253L18.384,39.31L18.353,39.368L18.324,39.426L18.295,39.485L18.267,39.544L18.24,39.603L18.213,39.663L18.188,39.723L18.162,39.784L18.114,39.906L18.091,39.967L18.069,40.029L18.047,40.092L18.027,40.154L18.007,40.217L17.987,40.281L17.969,40.344L17.951,40.408L17.934,40.473L17.918,40.537L17.902,40.602L17.888,40.667L17.874,40.733L17.861,40.799L17.837,40.931L17.826,40.998L17.808,41.132L17.8,41.199L17.792,41.267L17.78,41.403L17.775,41.471L17.771,41.54L17.768,41.609L17.766,41.678L17.764,41.817L17.766,41.955L17.768,42.025L17.771,42.093L17.775,42.162L17.78,42.23L17.786,42.299L17.792,42.366L17.808,42.502L17.826,42.636L17.837,42.702L17.849,42.769L17.861,42.835L17.874,42.9L17.888,42.966L17.902,43.031L17.934,43.161L17.951,43.225L17.987,43.353L18.047,43.542L18.091,43.666L18.114,43.728L18.162,43.85L18.188,43.91L18.213,43.97L18.267,44.09L18.295,44.149L18.353,44.265L18.384,44.323L18.414,44.381L18.446,44.437L18.478,44.494L18.51,44.55L18.544,44.606L18.578,44.661L18.613,44.716L18.648,44.77L18.72,44.878L18.758,44.931L18.834,45.035L18.873,45.087L18.913,45.138L18.953,45.188L19.035,45.288L19.077,45.337L19.12,45.386L19.163,45.434L19.251,45.528L19.296,45.575L19.341,45.621L19.387,45.666L19.434,45.711L19.528,45.799L19.576,45.842L19.625,45.885L19.674,45.927L19.723,45.968L19.773,46.009L19.875,46.089L19.927,46.128L20.031,46.204L20.084,46.241L20.138,46.278L20.192,46.314L20.246,46.349L20.301,46.384L20.356,46.418L20.468,46.484L20.524,46.516L20.581,46.548L20.639,46.578L20.696,46.608L20.755,46.638L20.813,46.666L20.872,46.694L20.932,46.722L20.991,46.748L21.052,46.774L21.112,46.799L21.173,46.824L21.234,46.848L21.296,46.871L21.358,46.893L21.42,46.914L21.483,46.935L21.609,46.975L21.737,47.011L21.801,47.028L21.866,47.044L21.996,47.074L22.061,47.088L22.127,47.101L22.193,47.113L22.26,47.125L22.326,47.135L22.393,47.145L22.46,47.154L22.528,47.162L22.595,47.17L22.731,47.182L22.8,47.186L22.868,47.19L23.006,47.196L23.076,47.197L23.215,47.197L23.284,47.196L23.422,47.19L23.49,47.186L23.559,47.182L23.695,47.17L23.763,47.162L23.83,47.154L23.897,47.145L24.031,47.125L24.163,47.101L24.229,47.088L24.294,47.074L24.36,47.059L24.425,47.044L24.489,47.028L24.553,47.011L24.681,46.975L24.807,46.935L24.87,46.914L24.932,46.893L24.994,46.871L25.056,46.848L25.117,46.824L25.239,46.774L25.359,46.722L25.536,46.638L25.652,46.578L25.709,46.548L25.823,46.484L25.879,46.451L25.934,46.418L25.99,46.384L26.044,46.349L26.099,46.314L26.153,46.278L26.259,46.204L26.312,46.166L26.364,46.128L26.415,46.089L26.517,46.009L26.567,45.968L26.616,45.927L26.666,45.885L26.762,45.799L26.81,45.755L26.857,45.711L26.949,45.621L26.994,45.575L27.084,45.481L27.127,45.434L27.17,45.386L27.213,45.337L27.255,45.288L27.378,45.138L27.417,45.087L27.495,44.983L27.533,44.931L27.57,44.878L27.678,44.716L27.746,44.606L27.78,44.55L27.812,44.494L27.845,44.437L27.876,44.381L27.907,44.323L27.937,44.265L27.995,44.149L28.023,44.09L28.077,43.97L28.103,43.91L28.128,43.85L28.176,43.728L28.199,43.666L28.243,43.542L28.264,43.479L28.284,43.416L28.303,43.353L28.322,43.289L28.356,43.161L28.388,43.031L28.403,42.966L28.416,42.9L28.429,42.835L28.442,42.769L28.453,42.702L28.464,42.636L28.474,42.569L28.483,42.502L28.491,42.434L28.498,42.366L28.504,42.299L28.51,42.23L28.515,42.162L28.519,42.093L28.522,42.025L28.524,41.955L28.526,41.817L28.524,41.678L28.522,41.609L28.519,41.54L28.515,41.471L28.51,41.403L28.498,41.267L28.491,41.199L28.483,41.132L28.474,41.065L28.464,40.998L28.453,40.931L28.442,40.865L28.403,40.667L28.388,40.602L28.372,40.537L28.356,40.473L28.339,40.408L28.322,40.344L28.303,40.281L28.284,40.217L28.264,40.154L28.243,40.092L28.221,40.029L28.199,39.967L28.176,39.906L28.128,39.784L28.103,39.723L28.077,39.663L28.05,39.603L28.023,39.544L27.995,39.485L27.966,39.426L27.937,39.368L27.907,39.31L27.845,39.196L27.812,39.139L27.78,39.083L27.746,39.027L27.678,38.917L27.606,38.809L27.57,38.756L27.533,38.703L27.495,38.65L27.456,38.598L27.378,38.496L27.337,38.445L27.255,38.345L27.213,38.296L27.084,38.152L27.039,38.105L26.949,38.013L26.903,37.967L26.857,37.922L26.81,37.878L26.762,37.834L26.714,37.791L26.666,37.749L26.616,37.707L26.567,37.665L26.517,37.624L26.466,37.584L26.364,37.506L26.312,37.467L26.259,37.429L26.153,37.355L26.099,37.319L26.044,37.284L25.99,37.249L25.934,37.215L25.879,37.182L25.823,37.149L25.766,37.117L25.652,37.055L25.594,37.025L25.536,36.996L25.477,36.967L25.418,36.939L25.359,36.912L25.299,36.885L25.239,36.859L25.117,36.809L25.056,36.786L24.932,36.74L24.87,36.719L24.807,36.698L24.744,36.678L24.681,36.659L24.617,36.64L24.553,36.622L24.489,36.605L24.425,36.589L24.36,36.574L24.294,36.559L24.229,36.545L24.163,36.532L24.097,36.52L24.031,36.509L23.964,36.498L23.897,36.488L23.83,36.479L23.763,36.471L23.627,36.457L23.559,36.452L23.49,36.447L23.422,36.443L23.353,36.44L23.215,36.436L23.076,36.436Z" style="fill:rgb(63,63,63);"/>
        </g>
    </g>
</svg>
