<?xml version="1.0" encoding="UTF-8" standalone="no"?>
<!-- Generator: Adobe Illustrator 16.0.0, SVG Export Plug-In . SVG Version: 6.00 Build 0)  -->

<svg
   xmlns:dc="http://purl.org/dc/elements/1.1/"
   xmlns:cc="http://creativecommons.org/ns#"
   xmlns:rdf="http://www.w3.org/1999/02/22-rdf-syntax-ns#"
   xmlns:svg="http://www.w3.org/2000/svg"
   xmlns="http://www.w3.org/2000/svg"
   xmlns:sodipodi="http://sodipodi.sourceforge.net/DTD/sodipodi-0.dtd"
   xmlns:inkscape="http://www.inkscape.org/namespaces/inkscape"
   version="1.1"
   id="Capa_1"
   x="0px"
   y="0px"
   width="493.578px"
   height="493.578px"
   viewBox="0 0 493.578 493.578"
   style="enable-background:new 0 0 493.578 493.578;"
   xml:space="preserve"
   sodipodi:docname="left_arrow.svg"
   inkscape:version="0.92.5 (2060ec1f9f, 2020-04-08)"><metadata
   id="metadata895"><rdf:RDF><cc:Work
       rdf:about=""><dc:format>image/svg+xml</dc:format><dc:type
         rdf:resource="http://purl.org/dc/dcmitype/StillImage" /><dc:title></dc:title></cc:Work></rdf:RDF></metadata><defs
   id="defs893" /><sodipodi:namedview
   pagecolor="#ffffff"
   bordercolor="#666666"
   borderopacity="1"
   objecttolerance="10"
   gridtolerance="10"
   guidetolerance="10"
   inkscape:pageopacity="0"
   inkscape:pageshadow="2"
   inkscape:window-width="1920"
   inkscape:window-height="1017"
   id="namedview891"
   showgrid="false"
   inkscape:zoom="0.85903342"
   inkscape:cx="278.77527"
   inkscape:cy="166.94146"
   inkscape:window-x="-8"
   inkscape:window-y="-8"
   inkscape:window-maximized="1"
   inkscape:current-layer="Capa_1" />
<g
   id="g858"
   transform="matrix(0.86687851,0,0,0.86556611,31.106838,32.594774)">
	<path
   d="m 487.267,225.981 c 0,-17.365 -13.999,-31.518 -31.518,-31.518 H 194.501 L 305.35,83.615 c 12.24,-12.24 12.24,-32.207 0,-44.676 L 275.592,9.18 c -12.24,-12.24 -32.207,-12.24 -44.676,0 L 15.568,224.527 c -6.12,6.12 -9.256,14.153 -9.256,22.262 0,8.032 3.136,16.142 9.256,22.262 l 215.348,215.348 c 12.24,12.239 32.207,12.239 44.676,0 L 305.35,454.64 c 12.24,-12.24 12.24,-32.207 0,-44.676 L 194.501,299.498 h 261.094 c 17.366,0 31.519,-14.153 31.519,-31.519 z"
   id="path856"
   inkscape:connector-curvature="0" />
</g>
<g
   id="g860">
</g>
<g
   id="g862">
</g>
<g
   id="g864">
</g>
<g
   id="g866">
</g>
<g
   id="g868">
</g>
<g
   id="g870">
</g>
<g
   id="g872">
</g>
<g
   id="g874">
</g>
<g
   id="g876">
</g>
<g
   id="g878">
</g>
<g
   id="g880">
</g>
<g
   id="g882">
</g>
<g
   id="g884">
</g>
<g
   id="g886">
</g>
<g
   id="g888">
</g>
</svg>