<?xml version="1.0" encoding="UTF-8" standalone="no"?>
<svg
   xmlns:dc="http://purl.org/dc/elements/1.1/"
   xmlns:cc="http://creativecommons.org/ns#"
   xmlns:rdf="http://www.w3.org/1999/02/22-rdf-syntax-ns#"
   xmlns:svg="http://www.w3.org/2000/svg"
   xmlns="http://www.w3.org/2000/svg"
   xmlns:sodipodi="http://sodipodi.sourceforge.net/DTD/sodipodi-0.dtd"
   xmlns:inkscape="http://www.inkscape.org/namespaces/inkscape"
   width="125.48795mm"
   height="134.18158mm"
   viewBox="0 0 125.48795 134.18158"
   version="1.1"
   id="svg8"
   sodipodi:docname="merge_cluster.svg"
   inkscape:version="1.0.2-2 (e86c870879, 2021-01-15)">
  <defs
     id="defs2">
    <rect
       x="48.380951"
       y="22.678572"
       width="57.074406"
       height="49.136906"
       id="rect165" />
    <rect
       x="114.90476"
       y="100.16369"
       width="49.892857"
       height="48.002975"
       id="rect159" />
  </defs>
  <sodipodi:namedview
     id="base"
     pagecolor="#ffffff"
     bordercolor="#666666"
     borderopacity="1.0"
     inkscape:pageopacity="0.0"
     inkscape:pageshadow="2"
     inkscape:zoom="0.7"
     inkscape:cx="19.143159"
     inkscape:cy="125.01009"
     inkscape:document-units="mm"
     inkscape:current-layer="layer1"
     inkscape:document-rotation="0"
     showgrid="false"
     inkscape:window-width="1920"
     inkscape:window-height="986"
     inkscape:window-x="-11"
     inkscape:window-y="-11"
     inkscape:window-maximized="1"
     fit-margin-top="0"
     fit-margin-left="0"
     fit-margin-right="0"
     fit-margin-bottom="0" />
  <metadata
     id="metadata5">
    <rdf:RDF>
      <cc:Work
         rdf:about="">
        <dc:format>image/svg+xml</dc:format>
        <dc:type
           rdf:resource="http://purl.org/dc/dcmitype/StillImage" />
        <dc:title></dc:title>
      </cc:Work>
    </rdf:RDF>
  </metadata>
  <g
     inkscape:label="Layer 1"
     inkscape:groupmode="layer"
     id="layer1"
     transform="translate(-49.893079,-81.642967)">
    <g
       id="g176">
      <path
         id="path139"
         style="fill:#333333;stroke-width:0.999999"
         d="M 349.09375,377.64648 A 223.57142,223.57142 0 0 0 188.57227,592.14258 223.57142,223.57142 0 0 0 412.14258,815.71484 223.57142,223.57142 0 0 0 635.33789,605.09375 187.14284,187.14284 0 0 1 517.14258,647.14258 187.14284,187.14284 0 0 1 330,460 187.14284,187.14284 0 0 1 349.09375,377.64648 Z"
         transform="scale(0.26458333)" />
      <path
         id="path148"
         style="fill:#333333;stroke-width:0.999999"
         d="M 513.57812,308.57227 A 148.57143,148.57143 0 0 0 365.71484,457.14258 148.57143,148.57143 0 0 0 514.28516,605.71484 148.57143,148.57143 0 0 0 662.85742,457.14258 148.57143,148.57143 0 0 0 514.28516,308.57227 a 148.57143,148.57143 0 0 0 -0.70704,0 z m 2.00196,81.25 c 6.92708,0 12.91667,0.59895 17.96875,1.79687 5.10416,1.19792 9.45313,2.94271 13.04687,5.23438 3.95833,2.44791 6.92709,5.57292 8.90625,9.375 1.97917,3.74999 2.96875,7.99479 2.96875,12.73437 0,6.61458 -1.92708,12.42188 -5.78125,17.42188 -3.80208,4.94791 -8.82813,8.15104 -15.07812,9.60937 v 1.09375 c 2.76041,0.41667 5.44271,1.11979 8.04687,2.10938 2.65625,0.98958 5.23438,2.60416 7.73438,4.84375 2.34375,2.03124 4.27083,4.66146 5.78125,7.89062 1.5625,3.17708 2.34375,6.97917 2.34375,11.40625 0,5.67708 -1.06771,10.85938 -3.20313,15.54688 -2.08333,4.68749 -5.15625,8.67187 -9.21875,11.95312 -4.11458,3.28125 -8.95833,5.80729 -14.53125,7.57813 -5.52083,1.71874 -12.26563,2.57812 -20.23437,2.57812 -9.0625,0 -16.84897,-0.75521 -23.35938,-2.26562 -6.45833,-1.51042 -11.71875,-3.20313 -15.78125,-5.07813 v -25.23437 h 2.8125 c 4.27083,2.70833 9.27084,5.05208 15,7.03125 5.78125,1.97916 11.04167,2.96875 15.78125,2.96875 2.8125,0 5.85938,-0.23438 9.14063,-0.70313 3.33333,-0.52083 6.11979,-1.61458 8.35937,-3.28125 1.77084,-1.30208 3.17709,-2.89063 4.21875,-4.76562 1.09375,-1.92709 1.64063,-4.63542 1.64063,-8.125 0,-3.4375 -0.75521,-6.06771 -2.26563,-7.89063 -1.51041,-1.875 -3.51562,-3.22917 -6.01562,-4.0625 -2.5,-0.88542 -5.4948,-1.38021 -8.98438,-1.48437 -3.48958,-0.10417 -6.5625,-0.15625 -9.21875,-0.15625 h -5 v -20.46875 h 4.60938 c 3.54166,0 6.79688,-0.15625 9.76562,-0.46875 2.96875,-0.3125 5.4948,-0.93751 7.57813,-1.875 2.08333,-0.98959 3.69792,-2.3698 4.84375,-4.14063 1.19791,-1.77083 1.79687,-4.16667 1.79687,-7.1875 0,-2.34375 -0.54687,-4.24479 -1.64062,-5.70312 -1.09375,-1.51042 -2.44792,-2.6823 -4.0625,-3.51563 -1.875,-0.9375 -4.0625,-1.5625 -6.5625,-1.875 -2.5,-0.3125 -4.63542,-0.46875 -6.40625,-0.46875 -2.86458,0 -5.78125,0.33854 -8.75,1.01563 -2.96875,0.67708 -5.85938,1.53645 -8.67188,2.57812 -2.1875,0.83333 -4.47917,1.92708 -6.875,3.28125 -2.39583,1.30208 -4.16666,2.29167 -5.3125,2.96875 h -2.42187 v -24.92187 c 4.01041,-1.71875 9.40104,-3.35938 16.17187,-4.92188 6.82291,-1.61458 13.77605,-2.42187 20.85938,-2.42187 z"
         transform="scale(0.26458333)" />
    </g>
    <text
       xml:space="preserve"
       id="text157"
       style="font-style:normal;font-weight:normal;font-size:10.5833px;line-height:1.25;font-family:sans-serif;white-space:pre;shape-inside:url(#rect159);fill:#000000;fill-opacity:1;stroke:none;" />
    <text
       xml:space="preserve"
       id="text163"
       style="font-style:normal;font-weight:normal;font-size:16.9333px;line-height:1.25;font-family:sans-serif;white-space:pre;shape-inside:url(#rect165);fill:#000000;fill-opacity:1;stroke:none;" />
  </g>
</svg>
