<?xml version="1.0" encoding="UTF-8" standalone="no"?>
<!-- Created with Inkscape (http://www.inkscape.org/) -->

<svg
   xmlns:dc="http://purl.org/dc/elements/1.1/"
   xmlns:cc="http://creativecommons.org/ns#"
   xmlns:rdf="http://www.w3.org/1999/02/22-rdf-syntax-ns#"
   xmlns:svg="http://www.w3.org/2000/svg"
   xmlns="http://www.w3.org/2000/svg"
   xmlns:sodipodi="http://sodipodi.sourceforge.net/DTD/sodipodi-0.dtd"
   xmlns:inkscape="http://www.inkscape.org/namespaces/inkscape"
   width="20.663958mm"
   height="20.663958mm"
   viewBox="0 0 20.663958 20.663958"
   version="1.1"
   id="svg8"
   inkscape:version="0.92.5 (2060ec1f9f, 2020-04-08)"
   sodipodi:docname="observation_round.svg">
  <defs
     id="defs2">
        
    
                
            </defs>
  <sodipodi:namedview
     id="base"
     pagecolor="#ffffff"
     bordercolor="#666666"
     borderopacity="1.0"
     inkscape:pageopacity="0.0"
     inkscape:pageshadow="2"
     inkscape:zoom="2.8"
     inkscape:cx="108.40794"
     inkscape:cy="23.414653"
     inkscape:document-units="mm"
     inkscape:current-layer="g837"
     showgrid="false"
     inkscape:pagecheckerboard="true"
     inkscape:window-width="1920"
     inkscape:window-height="1057"
     inkscape:window-x="1912"
     inkscape:window-y="-8"
     inkscape:window-maximized="1"
     units="mm"
     inkscape:snap-path-mask="true"
     inkscape:snap-tangential="true"
     inkscape:snap-perpendicular="true"
     fit-margin-top="0"
     fit-margin-left="0"
     fit-margin-right="0"
     fit-margin-bottom="0" />
  <metadata
     id="metadata5">
    <rdf:RDF>
      <cc:Work
         rdf:about="">
        <dc:format>image/svg+xml</dc:format>
        <dc:type
           rdf:resource="http://purl.org/dc/dcmitype/StillImage" />
        <dc:title></dc:title>
      </cc:Work>
    </rdf:RDF>
  </metadata>
  <g
     inkscape:label="Layer 1"
     inkscape:groupmode="layer"
     id="layer1"
     transform="translate(-0.19580796,-242.193)">
    <g
       style="clip-rule:evenodd;fill-rule:evenodd;stroke-linecap:round;stroke-linejoin:round;stroke-miterlimit:1.5"
       id="g841"
       transform="matrix(0.26458333,0,0,0.26458333,-1848.7467,-86.548718)">
            
        </g>
    <g
       style="clip-rule:evenodd;fill-rule:evenodd;stroke-linecap:round;stroke-linejoin:round;stroke-miterlimit:1.5"
       id="g837"
       transform="matrix(0.26458333,0,0,0.26458333,-1845.8592,-86.829816)">
                    
                    <g
   id="g929"
   transform="translate(-287.14284,461.96429)"
   clip-path="none">
  <g
     id="g831"
     transform="translate(176.34915,3.9379347)">
                        
                        <g
   id="g825"
   transform="translate(-98.440444,-2187.8014)">
                            <circle
   id="circle821"
   style="fill:#e99002"
   r="33.5"
   cy="3004.5"
   cx="7225.5" />

                            <path
   id="path823"
   style="fill:#ffffff"
   d="m 7225.5,2965.45 c -21.55,0 -39.05,17.5 -39.05,39.05 0,21.55 17.5,39.05 39.05,39.05 21.55,0 39.05,-17.5 39.05,-39.05 0,-21.55 -17.5,-39.05 -39.05,-39.05 z m 0,5.55 c 18.49,0 33.5,15.01 33.5,33.5 0,18.49 -15.01,33.5 -33.5,33.5 -18.49,0 -33.5,-15.01 -33.5,-33.5 0,-18.49 15.01,-33.5 33.5,-33.5 z"
   inkscape:connector-curvature="0" />

                        </g>

                        
                    </g>
  <g
     id="g835"
     transform="matrix(-0.944622,-0.944622,0.910632,-0.910632,11512.186,10570.085)">
                        <path
   id="path833"
   style="fill:#ffffff;stroke:#ffffff;stroke-width:2.86999989px"
   d="m 7394.2,3033.46 1.52,1.58 -6.23,6.46 6.23,6.46 -1.52,1.58 -6.23,-6.46 -6.22,6.46 -1.52,-1.58 6.22,-6.46 -6.22,-6.46 1.52,-1.58 6.22,6.46 z"
   inkscape:connector-curvature="0" />

                    </g>
</g>

                <rect
   style="fill:#ff0000;fill-opacity:0"
   id="rect4634"
   width="94.285713"
   height="96.428574"
   x="7098.6187"
   y="397.83823" />
</g>
  </g>
</svg>
