<?xml version="1.0" encoding="UTF-8" standalone="no"?>
<!DOCTYPE svg PUBLIC "-//W3C//DTD SVG 1.1//EN" "http://www.w3.org/Graphics/SVG/1.1/DTD/svg11.dtd">
<svg width="100%" height="100%" viewBox="0 0 1971 3221" version="1.1" xmlns="http://www.w3.org/2000/svg" xmlns:xlink="http://www.w3.org/1999/xlink" xml:space="preserve" xmlns:serif="http://www.serif.com/" style="fill-rule:evenodd;clip-rule:evenodd;stroke-linejoin:round;stroke-miterlimit:2;">
    <rect id="ArtBoard2" x="0" y="0" width="1969.16" height="3219.89" style="fill:none;"/>
    <g>
        <path d="M1621.09,392.919C1621.09,350.764 1586.87,316.539 1544.71,316.539L424.459,316.539C382.303,316.539 348.078,350.764 348.078,392.919L348.078,2826.97C348.078,2869.12 382.303,2903.35 424.459,2903.35L1544.71,2903.35C1586.87,2903.35 1621.09,2869.12 1621.09,2826.97L1621.09,392.919Z" style="stroke:rgb(38,74,98);stroke-width:1px;"/>
        <path d="M1580.74,429.293C1580.74,389.81 1548.68,357.754 1509.2,357.754L459.96,357.754C420.476,357.754 388.421,389.81 388.421,429.293L388.421,2790.59C388.421,2830.08 420.476,2862.13 459.96,2862.13L1509.2,2862.13C1548.68,2862.13 1580.74,2830.08 1580.74,2790.59L1580.74,429.293Z" style="fill:rgb(231,231,231);"/>
        <path d="M1289.18,357.754C1289.18,339.562 1274.41,324.791 1256.22,324.791L719.025,324.791C700.832,324.791 686.062,339.562 686.062,357.754C686.062,375.947 700.832,390.717 719.025,390.717L1256.22,390.717C1274.41,390.717 1289.18,375.947 1289.18,357.754Z" style="stroke:rgb(38,74,98);stroke-width:1px;"/>
    </g>
</svg>
